<svg xmlns="http://www.w3.org/2000/svg" width="12.969" height="15.906"><path id="Shape_100_copy_4" data-name="Shape 100 copy 4" d="M131.531 589.1H121.5a1.461 1.461 0 00-1.475 1.444V600.8a1.341 1.341 0 00.869 1.252l7.312 2.838a1.376 1.376 0 00.508.1h2.819a1.46 1.46 0 001.475-1.443v-13a1.461 1.461 0 00-1.477-1.447zm-10.16 12.1l1.015-1.049a.5.5 0 01.7-.018l3.249 2.992zm10.652 2.339a.487.487 0 01-.492.481h-2.793l-4.98-4.587a1.5 1.5 0 00-2.086.056l-.666.688v-9.637a.487.487 0 01.492-.481h10.033a.487.487 0 01.492.481v13z" transform="translate(-120.031 -589.094)" fill="#717171" fill-rule="evenodd"/></svg>